# xmcd
#
# Track frame offsets:
#	150
#	15408
#	30566
#	48461
#	66505
#	85410
#	103333
#	121145
#	132036
#	144369
#	160916
#	171901
#	184967
#	198194
#	210541
#	223138
#	239734
#	253533
#	266746
#	286368
#	298493
#
# Disc length: 4158 seconds
#
# Revision: 2
# Processed by: cddbd v1.5.2PL0 Copyright (c) Steve Scherf et al.
# Submitted via: audiograbber 1.83.01
#
DISCID=4c103c15
DTITLE=Wim Pols - Het Uitzicht
DYEAR=2008
DGENRE=Gospel
TTITLE0=Wie ontsteekt het vuur
TTITLE1=Wat drijft hen
TTITLE2=God houdt van alle mensen
TTITLE3=De woorden van een kind
TTITLE4=Schuilplaats
TTITLE5=Wie Jezus voor mij is
TTITLE6=Vergeving
TTITLE7=Zo is Uw Liefde voor mij
TTITLE8=Het uitzicht wordt steeds mooier
TTITLE9=Schoonheidkoninging
TTITLE10=Stralende sterren
TTITLE11=Hij gedenkt je zonden niet meer
TTITLE12=Het wonder van de stilte
TTITLE13=Hier in mijn kamer
TTITLE14=Op de pier
TTITLE15=Een heel bijzonder kind
TTITLE16=Hof van Eden
TTITLE17=Ik draag je
TTITLE18=Onze kinderen
TTITLE19=Wat U het beste lijkt
TTITLE20=Niets en niemand
EXTD=
EXTT0=
EXTT1=
EXTT2=
EXTT3=
EXTT4=
EXTT5=
EXTT6=
EXTT7=
EXTT8=
EXTT9=
EXTT10=
EXTT11=
EXTT12=
EXTT13=
EXTT14=
EXTT15=
EXTT16=
EXTT17=
EXTT18=
EXTT19=
EXTT20=
PLAYORDER=
